/* XPM */
static char * menu_inactive_xpm[] = {
"72 30 2 1",
" 	c #6A6A6A",
".	c #DFDEE1",
"                                                                        ",
"........................................................................",
"........................................................................",
"........................................................................",
"........................................................................",
"........................................................................",
"........................................................................",
"........................................................................",
"........................................................................",
"........................................................................",
"........................................................................",
"........................................................................",
"........................................................................",
"........................................................................",
"........................................................................",
"........................................................................",
"........................................................................",
"........................................................................",
"........................................................................",
"........................................................................",
"........................................................................",
"........................................................................",
"........................................................................",
"........................................................................",
"........................................................................",
"........................................................................",
"........................................................................",
"........................................................................",
"........................................................................",
"........................................................................"};
