/* XPM */
static char * title_5_inactive_xpm[] = {
"10 30 2 1",
" 	c #6A6A6A",
".	c #DFDEE1",
"          ",
"..........",
"..........",
"..........",
"..........",
"..........",
"..........",
"..........",
"..........",
"..........",
"..........",
"..........",
"..........",
"..........",
"..........",
"..........",
"..........",
"..........",
"..........",
"..........",
"..........",
"..........",
"..........",
"..........",
"..........",
"..........",
"..........",
"..........",
"..........",
".........."};
