/* XPM */
static char * bottom_right_inactive_xpm[] = {
"28 6 2 1",
" 	c #6A6A6A s active_color_2",
".	c #D3D7D5 s active_color_1",
"                           .",
"                           .",
"                           .",
"                           .",
"                           .",
"............................"};
