/* XPM */
static char * maximize_inactive_xpm[] = {
"24 26 2 1",
" 	c #6A6A6A",
".	c #D3D7D5",
"                        ",
"........................",
"........................",
"........................",
"........................",
"........................",
"........................",
"........................",
"........................",
"........................",
"........................",
"........................",
"........................",
"........................",
"........................",
"........................",
"........................",
"........................",
"........................",
"........................",
"........................",
"........................",
"........................",
"........................",
"........................",
"........................"};
