/* XPM */
static char * menu_inactive_xpm[] = {
"72 26 2 1",
" 	c #6A6A6A s active_color_1",
".	c #D3D7D5 s active_color_2",
"                                                                        ",
"........................................................................",
"........................................................................",
"........................................................................",
"........................................................................",
"........................................................................",
"........................................................................",
"........................................................................",
"........................................................................",
"........................................................................",
"........................................................................",
"........................................................................",
"........................................................................",
"........................................................................",
"........................................................................",
"........................................................................",
"........................................................................",
"........................................................................",
"........................................................................",
"........................................................................",
"........................................................................",
"........................................................................",
"........................................................................",
"........................................................................",
"........................................................................",
"........................................................................"};
