/* XPM */
static char * shade_active_xpm[] = {
"41 30 2 1",
" 	c #4B4D4D",
".	c #DFDEE1",
"                                         ",
".........................................",
".........................................",
".........................................",
".........................................",
".........................................",
".........................................",
".........................................",
".........................................",
".........................................",
".........................................",
".........................................",
".........................................",
".........................................",
".........................................",
".........................................",
".........................................",
".........................................",
".........................................",
".........................................",
".........................................",
".........................................",
".........................................",
".........................................",
".........................................",
".........................................",
".........................................",
".........................................",
".........................................",
"........................................."};
