/* XPM */
static char * top_left_active_xpm[] = {
"4 30 4 1",
" 	c None",
".	c #6A6A6A",
"+	c #DFDEE1",
"@	c #696A6A",
"  ..",
" .++",
".+++",
"@+++",
".+++",
".+++",
".+++",
".+++",
".+++",
".+++",
".+++",
".+++",
".+++",
".+++",
".+++",
".+++",
".+++",
".+++",
".+++",
".+++",
".+++",
".+++",
".+++",
".+++",
".+++",
".+++",
".+++",
".+++",
".+++",
".+++"};
